mtllib udcapc_hand_right.mtl
o bone_1
usemtl glove
vt 0.5 0.5
v 0.0000000 -0.0250000 0.0050000
v 0.0037500 -0.0216506 0.0050000
v 0.0064952 -0.0125000 0.0050000
v 0.0075000 -0.0000000 0.0050000
v 0.0064952 0.0125000 0.0050000
v 0.0037500 0.0216506 0.0050000
v 0.0000000 0.0250000 0.0050000
v -0.0037500 0.0216506 0.0050000
v -0.0064952 0.0125000 0.0050000
v -0.0075000 0.0000000 0.0050000
v -0.0064952 -0.0125000 0.0050000
v -0.0037500 -0.0216506 0.0050000
v 0.0000000 -0.0380000 0.0780000
v 0.0057000 -0.0329090 0.0780000
v 0.0098727 -0.0190000 0.0780000
v 0.0114000 -0.0000000 0.0780000
v 0.0098727 0.0190000 0.0780000
v 0.0057000 0.0329090 0.0780000
v 0.0000000 0.0380000 0.0780000
v -0.0057000 0.0329090 0.0780000
v -0.0098727 0.0190000 0.0780000
v -0.0114000 0.0000000 0.0780000
v -0.0098727 -0.0190000 0.0780000
v -0.0057000 -0.0329090 0.0780000
vn 0.6603441 -0.7393313 -0.1316617
f 1/1/1 2/1/1 13/1/1
vn 0.6603441 -0.7393313 -0.1316617
f 2/1/2 14/1/2 13/1/2
vn 0.9554947 -0.2866484 -0.0697315
f 2/1/3 3/1/3 14/1/3
vn 0.9554947 -0.2866484 -0.0697315
f 3/1/4 15/1/4 14/1/4
vn 0.9953743 -0.0800129 -0.0531775
f 3/1/5 4/1/5 15/1/5
vn 0.9953743 -0.0800129 -0.0531775
f 4/1/6 16/1/6 15/1/6
vn 0.9953743 0.0800129 -0.0531775
f 4/1/7 5/1/7 16/1/7
vn 0.9953743 0.0800129 -0.0531775
f 5/1/8 17/1/8 16/1/8
vn 0.9554947 0.2866484 -0.0697315
f 5/1/9 6/1/9 17/1/9
vn 0.9554947 0.2866484 -0.0697315
f 6/1/10 18/1/10 17/1/10
vn 0.6603441 0.7393313 -0.1316617
f 6/1/11 7/1/11 18/1/11
vn 0.6603441 0.7393313 -0.1316617
f 7/1/12 19/1/12 18/1/12
vn -0.6603441 0.7393313 -0.1316617
f 7/1/13 8/1/13 19/1/13
vn -0.6603441 0.7393313 -0.1316617
f 8/1/14 20/1/14 19/1/14
vn -0.9554947 0.2866484 -0.0697315
f 8/1/15 9/1/15 20/1/15
vn -0.9554947 0.2866484 -0.0697315
f 9/1/16 21/1/16 20/1/16
vn -0.9953743 0.0800129 -0.0531775
f 9/1/17 10/1/17 21/1/17
vn -0.9953743 0.0800129 -0.0531775
f 10/1/18 22/1/18 21/1/18
vn -0.9953743 -0.0800129 -0.0531775
f 10/1/19 11/1/19 22/1/19
vn -0.9953743 -0.0800129 -0.0531775
f 11/1/20 23/1/20 22/1/20
vn -0.9554947 -0.2866484 -0.0697315
f 11/1/21 12/1/21 23/1/21
vn -0.9554947 -0.2866484 -0.0697315
f 12/1/22 24/1/22 23/1/22
vn -0.6603441 -0.7393313 -0.1316617
f 12/1/23 1/1/23 24/1/23
vn -0.6603441 -0.7393313 -0.1316617
f 1/1/24 13/1/24 24/1/24
vn 0.0000000 0.0000000 -1.0000000
f 1/1/25 3/1/25 2/1/25
vn 0.0000000 0.0000000 1.0000000
f 13/1/26 14/1/26 15/1/26
vn 0.0000000 0.0000000 -1.0000000
f 1/1/27 4/1/27 3/1/27
vn 0.0000000 0.0000000 1.0000000
f 13/1/28 15/1/28 16/1/28
vn 0.0000000 0.0000000 -1.0000000
f 1/1/29 5/1/29 4/1/29
vn 0.0000000 0.0000000 1.0000000
f 13/1/30 16/1/30 17/1/30
vn 0.0000000 0.0000000 -1.0000000
f 1/1/31 6/1/31 5/1/31
vn 0.0000000 0.0000000 1.0000000
f 13/1/32 17/1/32 18/1/32
vn 0.0000000 0.0000000 -1.0000000
f 1/1/33 7/1/33 6/1/33
vn 0.0000000 0.0000000 1.0000000
f 13/1/34 18/1/34 19/1/34
vn 0.0000000 0.0000000 -1.0000000
f 1/1/35 8/1/35 7/1/35
vn 0.0000000 -0.0000000 1.0000000
f 13/1/36 19/1/36 20/1/36
vn 0.0000000 0.0000000 -1.0000000
f 1/1/37 9/1/37 8/1/37
vn 0.0000000 0.0000000 1.0000000
f 13/1/38 20/1/38 21/1/38
vn 0.0000000 0.0000000 -1.0000000
f 1/1/39 10/1/39 9/1/39
vn 0.0000000 0.0000000 1.0000000
f 13/1/40 21/1/40 22/1/40
vn 0.0000000 0.0000000 -1.0000000
f 1/1/41 11/1/41 10/1/41
vn 0.0000000 0.0000000 1.0000000
f 13/1/42 22/1/42 23/1/42
vn 0.0000000 0.0000000 -1.0000000
f 1/1/43 12/1/43 11/1/43
vn 0.0000000 0.0000000 1.0000000
f 13/1/44 23/1/44 24/1/44
