mtllib udcapc_hand_right.mtl
o bone_18
usemtl glove
vt 0.5 0.5
v -0.0000000 -0.0080000 0.0000000
v -0.0000000 -0.0069282 0.0040000
v -0.0000000 -0.0040000 0.0069282
v 0.0000000 -0.0000000 0.0080000
v 0.0000000 0.0040000 0.0069282
v 0.0000000 0.0069282 0.0040000
v 0.0000000 0.0080000 0.0000000
v 0.0000000 0.0069282 -0.0040000
v 0.0000000 0.0040000 -0.0069282
v -0.0000000 0.0000000 -0.0080000
v -0.0000000 -0.0040000 -0.0069282
v -0.0000000 -0.0069282 -0.0040000
v -0.0287470 -0.0067999 0.0000000
v -0.0287470 -0.0058889 0.0034000
v -0.0287470 -0.0033999 0.0058890
v -0.0287469 0.0000001 0.0068000
v -0.0287469 0.0034001 0.0058890
v -0.0287469 0.0058891 0.0034000
v -0.0287469 0.0068001 0.0000001
v -0.0287469 0.0058891 -0.0033999
v -0.0287470 0.0034001 -0.0058889
v -0.0287470 0.0000001 -0.0067999
v -0.0287470 -0.0033999 -0.0058889
v -0.0287470 -0.0058889 -0.0033999
vn -0.0402913 -0.9651414 0.2586090
f 1/1/1 2/1/1 13/1/1
vn -0.0402913 -0.9651414 0.2586090
f 2/1/2 14/1/2 13/1/2
vn -0.0402897 -0.7065325 0.7065327
f 2/1/3 3/1/3 14/1/3
vn -0.0402897 -0.7065325 0.7065327
f 3/1/4 15/1/4 14/1/4
vn -0.0402877 -0.2586088 0.9651417
f 3/1/5 4/1/5 15/1/5
vn -0.0402877 -0.2586088 0.9651417
f 4/1/6 16/1/6 15/1/6
vn -0.0402859 0.2586090 0.9651417
f 4/1/7 5/1/7 16/1/7
vn -0.0402859 0.2586090 0.9651417
f 5/1/8 17/1/8 16/1/8
vn -0.0402847 0.7065328 0.7065327
f 5/1/9 6/1/9 17/1/9
vn -0.0402847 0.7065328 0.7065327
f 6/1/10 18/1/10 17/1/10
vn -0.0402846 0.9651417 0.2586090
f 6/1/11 7/1/11 18/1/11
vn -0.0402846 0.9651417 0.2586090
f 7/1/12 19/1/12 18/1/12
vn -0.0402855 0.9651417 -0.2586088
f 7/1/13 8/1/13 19/1/13
vn -0.0402855 0.9651417 -0.2586088
f 8/1/14 20/1/14 19/1/14
vn -0.0402872 0.7065328 -0.7065326
f 8/1/15 9/1/15 20/1/15
vn -0.0402872 0.7065328 -0.7065326
f 9/1/16 21/1/16 20/1/16
vn -0.0402892 0.2586090 -0.9651415
f 9/1/17 10/1/17 21/1/17
vn -0.0402892 0.2586090 -0.9651415
f 10/1/18 22/1/18 21/1/18
vn -0.0402910 -0.2586088 -0.9651415
f 10/1/19 11/1/19 22/1/19
vn -0.0402910 -0.2586088 -0.9651415
f 11/1/20 23/1/20 22/1/20
vn -0.0402921 -0.7065325 -0.7065326
f 11/1/21 12/1/21 23/1/21
vn -0.0402921 -0.7065325 -0.7065326
f 12/1/22 24/1/22 23/1/22
vn -0.0402922 -0.9651414 -0.2586088
f 12/1/23 1/1/23 24/1/23
vn -0.0402922 -0.9651414 -0.2586088
f 1/1/24 13/1/24 24/1/24
vn 1.0000000 -0.0000035 -0.0000017
f 1/1/25 3/1/25 2/1/25
vn -1.0000000 0.0000035 0.0000017
f 13/1/26 14/1/26 15/1/26
vn 1.0000000 -0.0000035 -0.0000017
f 1/1/27 4/1/27 3/1/27
vn -1.0000000 0.0000035 0.0000017
f 13/1/28 15/1/28 16/1/28
vn 1.0000000 -0.0000035 -0.0000017
f 1/1/29 5/1/29 4/1/29
vn -1.0000000 0.0000035 0.0000017
f 13/1/30 16/1/30 17/1/30
vn 1.0000000 -0.0000035 -0.0000017
f 1/1/31 6/1/31 5/1/31
vn -1.0000000 0.0000035 0.0000017
f 13/1/32 17/1/32 18/1/32
vn 1.0000000 -0.0000035 -0.0000017
f 1/1/33 7/1/33 6/1/33
vn -1.0000000 0.0000035 0.0000017
f 13/1/34 18/1/34 19/1/34
vn 1.0000000 -0.0000035 -0.0000017
f 1/1/35 8/1/35 7/1/35
vn -1.0000000 0.0000035 0.0000017
f 13/1/36 19/1/36 20/1/36
vn 1.0000000 -0.0000035 -0.0000017
f 1/1/37 9/1/37 8/1/37
vn -1.0000000 0.0000035 0.0000017
f 13/1/38 20/1/38 21/1/38
vn 1.0000000 -0.0000035 -0.0000017
f 1/1/39 10/1/39 9/1/39
vn -1.0000000 0.0000035 0.0000017
f 13/1/40 21/1/40 22/1/40
vn 1.0000000 -0.0000035 -0.0000017
f 1/1/41 11/1/41 10/1/41
vn -1.0000000 0.0000035 0.0000017
f 13/1/42 22/1/42 23/1/42
vn 1.0000000 -0.0000035 -0.0000017
f 1/1/43 12/1/43 11/1/43
vn -1.0000000 0.0000035 0.0000017
f 13/1/44 23/1/44 24/1/44
