mtllib udcapc_hand_left.mtl
o udcapc_hand_left
usemtl glove
vt 0.5 0.5
v 0.0250000 0.0000000 -0.0070000
v 0.0216506 0.0045000 -0.0070000
v 0.0125000 0.0077942 -0.0070000
v 0.0000000 0.0090000 -0.0070000
v -0.0125000 0.0077942 -0.0070000
v -0.0216506 0.0045000 -0.0070000
v -0.0250000 0.0000000 -0.0070000
v -0.0216506 -0.0045000 -0.0070000
v -0.0125000 -0.0077942 -0.0070000
v -0.0000000 -0.0090000 -0.0070000
v 0.0125000 -0.0077942 -0.0070000
v 0.0216506 -0.0045000 -0.0070000
v 0.0380000 0.0000000 -0.0720000
v 0.0329090 0.0068400 -0.0720000
v 0.0190000 0.0118472 -0.0720000
v 0.0000000 0.0136800 -0.0720000
v -0.0190000 0.0118472 -0.0720000
v -0.0329090 0.0068400 -0.0720000
v -0.0380000 0.0000000 -0.0720000
v -0.0329090 -0.0068400 -0.0720000
v -0.0190000 -0.0118472 -0.0720000
v -0.0000000 -0.0136800 -0.0720000
v 0.0190000 -0.0118472 -0.0720000
v 0.0329090 -0.0068400 -0.0720000
v 0.0330000 0.0000000 -0.0680000
v 0.0319282 0.0040000 -0.0680000
v 0.0290000 0.0069282 -0.0680000
v 0.0250000 0.0080000 -0.0680000
v 0.0210000 0.0069282 -0.0680000
v 0.0180718 0.0040000 -0.0680000
v 0.0170000 0.0000000 -0.0680000
v 0.0180718 -0.0040000 -0.0680000
v 0.0210000 -0.0069282 -0.0680000
v 0.0250000 -0.0080000 -0.0680000
v 0.0290000 -0.0069282 -0.0680000
v 0.0319282 -0.0040000 -0.0680000
v 0.0307600 0.0000000 -0.1400000
v 0.0299883 0.0028800 -0.1400000
v 0.0278800 0.0049883 -0.1400000
v 0.0250000 0.0057600 -0.1400000
v 0.0221200 0.0049883 -0.1400000
v 0.0200117 0.0028800 -0.1400000
v 0.0192400 0.0000000 -0.1400000
v 0.0200117 -0.0028800 -0.1400000
v 0.0221200 -0.0049883 -0.1400000
v 0.0250000 -0.0057600 -0.1400000
v 0.0278800 -0.0049883 -0.1400000
v 0.0299883 -0.0028800 -0.1400000
v 0.0165000 0.0000000 -0.0680000
v 0.0153612 0.0042500 -0.0680000
v 0.0122500 0.0073612 -0.0680000
v 0.0080000 0.0085000 -0.0680000
v 0.0037500 0.0073612 -0.0680000
v 0.0006388 0.0042500 -0.0680000
v -0.0005000 0.0000000 -0.0680000
v 0.0006388 -0.0042500 -0.0680000
v 0.0037500 -0.0073612 -0.0680000
v 0.0080000 -0.0085000 -0.0680000
v 0.0122500 -0.0073612 -0.0680000
v 0.0153612 -0.0042500 -0.0680000
v 0.0141200 0.0000000 -0.1520000
v 0.0133001 0.0030600 -0.1520000
v 0.0110600 0.0053001 -0.1520000
v 0.0080000 0.0061200 -0.1520000
v 0.0049400 0.0053001 -0.1520000
v 0.0026999 0.0030600 -0.1520000
v 0.0018800 0.0000000 -0.1520000
v 0.0026999 -0.0030600 -0.1520000
v 0.0049400 -0.0053001 -0.1520000
v 0.0080000 -0.0061200 -0.1520000
v 0.0110600 -0.0053001 -0.1520000
v 0.0133001 -0.0030600 -0.1520000
v -0.0020000 0.0000000 -0.0680000
v -0.0030718 0.0040000 -0.0680000
v -0.0060000 0.0069282 -0.0680000
v -0.0100000 0.0080000 -0.0680000
v -0.0140000 0.0069282 -0.0680000
v -0.0169282 0.0040000 -0.0680000
v -0.0180000 0.0000000 -0.0680000
v -0.0169282 -0.0040000 -0.0680000
v -0.0140000 -0.0069282 -0.0680000
v -0.0100000 -0.0080000 -0.0680000
v -0.0060000 -0.0069282 -0.0680000
v -0.0030718 -0.0040000 -0.0680000
v -0.0042400 0.0000000 -0.1460000
v -0.0050117 0.0028800 -0.1460000
v -0.0071200 0.0049883 -0.1460000
v -0.0100000 0.0057600 -0.1460000
v -0.0128800 0.0049883 -0.1460000
v -0.0149883 0.0028800 -0.1460000
v -0.0157600 0.0000000 -0.1460000
v -0.0149883 -0.0028800 -0.1460000
v -0.0128800 -0.0049883 -0.1460000
v -0.0100000 -0.0057600 -0.1460000
v -0.0071200 -0.0049883 -0.1460000
v -0.0050117 -0.0028800 -0.1460000
v -0.0200000 0.0000000 -0.0680000
v -0.0209378 0.0035000 -0.0680000
v -0.0235000 0.0060622 -0.0680000
v -0.0270000 0.0070000 -0.0680000
v -0.0305000 0.0060622 -0.0680000
v -0.0330622 0.0035000 -0.0680000
v -0.0340000 0.0000000 -0.0680000
v -0.0330622 -0.0035000 -0.0680000
v -0.0305000 -0.0060622 -0.0680000
v -0.0270000 -0.0070000 -0.0680000
v -0.0235000 -0.0060622 -0.0680000
v -0.0209378 -0.0035000 -0.0680000
v -0.0219600 0.0000000 -0.1280000
v -0.0226352 0.0025200 -0.1280000
v -0.0244800 0.0043648 -0.1280000
v -0.0270000 0.0050400 -0.1280000
v -0.0295200 0.0043648 -0.1280000
v -0.0313648 0.0025200 -0.1280000
v -0.0320400 0.0000000 -0.1280000
v -0.0313648 -0.0025200 -0.1280000
v -0.0295200 -0.0043648 -0.1280000
v -0.0270000 -0.0050400 -0.1280000
v -0.0244800 -0.0043648 -0.1280000
v -0.0226352 -0.0025200 -0.1280000
v 0.0336883 -0.0020000 -0.0271329
v 0.0326582 0.0035000 -0.0281869
v 0.0298441 0.0075263 -0.0310665
v 0.0260000 0.0090000 -0.0350000
v 0.0221559 0.0075263 -0.0389335
v 0.0193418 0.0035000 -0.0418131
v 0.0183117 -0.0020000 -0.0428671
v 0.0193418 -0.0075000 -0.0418131
v 0.0221559 -0.0115263 -0.0389335
v 0.0260000 -0.0130000 -0.0350000
v 0.0298441 -0.0115263 -0.0310665
v 0.0326582 -0.0075000 -0.0281869
v 0.0752420 -0.0040000 -0.0726361
v 0.0745397 -0.0002500 -0.0733547
v 0.0726210 0.0024952 -0.0753180
v 0.0700000 0.0035000 -0.0780000
v 0.0673790 0.0024952 -0.0806820
v 0.0654603 -0.0002500 -0.0826453
v 0.0647580 -0.0040000 -0.0833639
v 0.0654603 -0.0077500 -0.0826453
v 0.0673790 -0.0104952 -0.0806820
v 0.0700000 -0.0115000 -0.0780000
v 0.0726210 -0.0104952 -0.0753180
v 0.0745397 -0.0077500 -0.0733547
vn 0.7920590 0.5895322 0.1584118
f 13/1/1 2/1/1 1/1/1
vn 0.7920590 0.5895322 0.1584118
f 13/1/2 14/1/2 2/1/2
vn 0.3372784 0.9368844 0.0921462
f 14/1/3 3/1/3 2/1/3
vn 0.3372784 0.9368844 0.0921462
f 14/1/4 15/1/4 3/1/4
vn 0.0957704 0.9928334 0.0714840
f 15/1/5 4/1/5 3/1/5
vn 0.0957704 0.9928334 0.0714840
f 15/1/6 16/1/6 4/1/6
vn -0.0957704 0.9928334 0.0714840
f 16/1/7 5/1/7 4/1/7
vn -0.0957704 0.9928334 0.0714840
f 16/1/8 17/1/8 5/1/8
vn -0.3372784 0.9368844 0.0921462
f 17/1/9 6/1/9 5/1/9
vn -0.3372784 0.9368844 0.0921462
f 17/1/10 18/1/10 6/1/10
vn -0.7920590 0.5895322 0.1584118
f 18/1/11 7/1/11 6/1/11
vn -0.7920590 0.5895322 0.1584118
f 18/1/12 19/1/12 7/1/12
vn -0.7920590 -0.5895322 0.1584118
f 19/1/13 8/1/13 7/1/13
vn -0.7920590 -0.5895322 0.1584118
f 19/1/14 20/1/14 8/1/14
vn -0.3372784 -0.9368844 0.0921462
f 20/1/15 9/1/15 8/1/15
vn -0.3372784 -0.9368844 0.0921462
f 20/1/16 21/1/16 9/1/16
vn -0.0957704 -0.9928334 0.0714840
f 21/1/17 10/1/17 9/1/17
vn -0.0957704 -0.9928334 0.0714840
f 21/1/18 22/1/18 10/1/18
vn 0.0957704 -0.9928334 0.0714840
f 22/1/19 11/1/19 10/1/19
vn 0.0957704 -0.9928334 0.0714840
f 22/1/20 23/1/20 11/1/20
vn 0.3372784 -0.9368844 0.0921462
f 23/1/21 12/1/21 11/1/21
vn 0.3372784 -0.9368844 0.0921462
f 23/1/22 24/1/22 12/1/22
vn 0.7920590 -0.5895322 0.1584118
f 24/1/23 1/1/23 12/1/23
vn 0.7920590 -0.5895322 0.1584118
f 24/1/24 13/1/24 1/1/24
vn 0.0000000 0.0000000 1.0000000
f 2/1/25 3/1/25 1/1/25
vn 0.0000000 0.0000000 -1.0000000
f 15/1/26 14/1/26 13/1/26
vn 0.0000000 0.0000000 1.0000000
f 3/1/27 4/1/27 1/1/27
vn 0.0000000 0.0000000 -1.0000000
f 16/1/28 15/1/28 13/1/28
vn 0.0000000 0.0000000 1.0000000
f 4/1/29 5/1/29 1/1/29
vn 0.0000000 0.0000000 -1.0000000
f 17/1/30 16/1/30 13/1/30
vn 0.0000000 0.0000000 1.0000000
f 5/1/31 6/1/31 1/1/31
vn 0.0000000 0.0000000 -1.0000000
f 18/1/32 17/1/32 13/1/32
vn 0.0000000 0.0000000 1.0000000
f 6/1/33 7/1/33 1/1/33
vn 0.0000000 0.0000000 -1.0000000
f 19/1/34 18/1/34 13/1/34
vn 0.0000000 0.0000000 1.0000000
f 7/1/35 8/1/35 1/1/35
vn 0.0000000 0.0000000 -1.0000000
f 20/1/36 19/1/36 13/1/36
vn -0.0000000 0.0000000 1.0000000
f 8/1/37 9/1/37 1/1/37
vn 0.0000000 0.0000000 -1.0000000
f 21/1/38 20/1/38 13/1/38
vn -0.0000000 0.0000000 1.0000000
f 9/1/39 10/1/39 1/1/39
vn 0.0000000 0.0000000 -1.0000000
f 22/1/40 21/1/40 13/1/40
vn 0.0000000 0.0000000 1.0000000
f 10/1/41 11/1/41 1/1/41
vn -0.0000000 0.0000000 -1.0000000
f 23/1/42 22/1/42 13/1/42
vn 0.0000000 0.0000000 1.0000000
f 11/1/43 12/1/43 1/1/43
vn -0.0000000 0.0000000 -1.0000000
f 24/1/44 23/1/44 13/1/44
vn 0.9654900 0.2587023 -0.0300375
f 37/1/45 26/1/45 25/1/45
vn 0.9654900 0.2587023 -0.0300375
f 37/1/46 38/1/46 26/1/46
vn 0.7067877 0.7067877 -0.0300375
f 38/1/47 27/1/47 26/1/47
vn 0.7067877 0.7067877 -0.0300375
f 38/1/48 39/1/48 27/1/48
vn 0.2587023 0.9654900 -0.0300375
f 39/1/49 28/1/49 27/1/49
vn 0.2587023 0.9654900 -0.0300375
f 39/1/50 40/1/50 28/1/50
vn -0.2587023 0.9654900 -0.0300375
f 40/1/51 29/1/51 28/1/51
vn -0.2587023 0.9654900 -0.0300375
f 40/1/52 41/1/52 29/1/52
vn -0.7067877 0.7067877 -0.0300375
f 41/1/53 30/1/53 29/1/53
vn -0.7067877 0.7067877 -0.0300375
f 41/1/54 42/1/54 30/1/54
vn -0.9654900 0.2587023 -0.0300375
f 42/1/55 31/1/55 30/1/55
vn -0.9654900 0.2587023 -0.0300375
f 42/1/56 43/1/56 31/1/56
vn -0.9654900 -0.2587023 -0.0300375
f 43/1/57 32/1/57 31/1/57
vn -0.9654900 -0.2587023 -0.0300375
f 43/1/58 44/1/58 32/1/58
vn -0.7067877 -0.7067877 -0.0300375
f 44/1/59 33/1/59 32/1/59
vn -0.7067877 -0.7067877 -0.0300375
f 44/1/60 45/1/60 33/1/60
vn -0.2587023 -0.9654900 -0.0300375
f 45/1/61 34/1/61 33/1/61
vn -0.2587023 -0.9654900 -0.0300375
f 45/1/62 46/1/62 34/1/62
vn 0.2587023 -0.9654900 -0.0300375
f 46/1/63 35/1/63 34/1/63
vn 0.2587023 -0.9654900 -0.0300375
f 46/1/64 47/1/64 35/1/64
vn 0.7067877 -0.7067877 -0.0300375
f 47/1/65 36/1/65 35/1/65
vn 0.7067877 -0.7067877 -0.0300375
f 47/1/66 48/1/66 36/1/66
vn 0.9654900 -0.2587023 -0.0300375
f 48/1/67 25/1/67 36/1/67
vn 0.9654900 -0.2587023 -0.0300375
f 48/1/68 37/1/68 25/1/68
vn 0.0000000 0.0000000 1.0000000
f 26/1/69 27/1/69 25/1/69
vn 0.0000000 0.0000000 -1.0000000
f 39/1/70 38/1/70 37/1/70
vn 0.0000000 0.0000000 1.0000000
f 27/1/71 28/1/71 25/1/71
vn 0.0000000 0.0000000 -1.0000000
f 40/1/72 39/1/72 37/1/72
vn 0.0000000 0.0000000 1.0000000
f 28/1/73 29/1/73 25/1/73
vn 0.0000000 0.0000000 -1.0000000
f 41/1/74 40/1/74 37/1/74
vn 0.0000000 0.0000000 1.0000000
f 29/1/75 30/1/75 25/1/75
vn 0.0000000 0.0000000 -1.0000000
f 42/1/76 41/1/76 37/1/76
vn 0.0000000 0.0000000 1.0000000
f 30/1/77 31/1/77 25/1/77
vn 0.0000000 0.0000000 -1.0000000
f 43/1/78 42/1/78 37/1/78
vn 0.0000000 0.0000000 1.0000000
f 31/1/79 32/1/79 25/1/79
vn 0.0000000 0.0000000 -1.0000000
f 44/1/80 43/1/80 37/1/80
vn -0.0000000 0.0000000 1.0000000
f 32/1/81 33/1/81 25/1/81
vn 0.0000000 0.0000000 -1.0000000
f 45/1/82 44/1/82 37/1/82
vn -0.0000000 0.0000000 1.0000000
f 33/1/83 34/1/83 25/1/83
vn 0.0000000 0.0000000 -1.0000000
f 46/1/84 45/1/84 37/1/84
vn 0.0000000 0.0000000 1.0000000
f 34/1/85 35/1/85 25/1/85
vn -0.0000000 0.0000000 -1.0000000
f 47/1/86 46/1/86 37/1/86
vn 0.0000000 0.0000000 1.0000000
f 35/1/87 36/1/87 25/1/87
vn -0.0000000 0.0000000 -1.0000000
f 48/1/88 47/1/88 37/1/88
vn 0.9655643 0.2587222 -0.0273577
f 61/1/89 50/1/89 49/1/89
vn 0.9655643 0.2587222 -0.0273577
f 61/1/90 62/1/90 50/1/90
vn 0.7068421 0.7068421 -0.0273577
f 62/1/91 51/1/91 50/1/91
vn 0.7068421 0.7068421 -0.0273577
f 62/1/92 63/1/92 51/1/92
vn 0.2587222 0.9655643 -0.0273577
f 63/1/93 52/1/93 51/1/93
vn 0.2587222 0.9655643 -0.0273577
f 63/1/94 64/1/94 52/1/94
vn -0.2587222 0.9655643 -0.0273577
f 64/1/95 53/1/95 52/1/95
vn -0.2587222 0.9655643 -0.0273577
f 64/1/96 65/1/96 53/1/96
vn -0.7068421 0.7068421 -0.0273577
f 65/1/97 54/1/97 53/1/97
vn -0.7068421 0.7068421 -0.0273577
f 65/1/98 66/1/98 54/1/98
vn -0.9655643 0.2587222 -0.0273577
f 66/1/99 55/1/99 54/1/99
vn -0.9655643 0.2587222 -0.0273577
f 66/1/100 67/1/100 55/1/100
vn -0.9655643 -0.2587222 -0.0273577
f 67/1/101 56/1/101 55/1/101
vn -0.9655643 -0.2587222 -0.0273577
f 67/1/102 68/1/102 56/1/102
vn -0.7068421 -0.7068421 -0.0273577
f 68/1/103 57/1/103 56/1/103
vn -0.7068421 -0.7068421 -0.0273577
f 68/1/104 69/1/104 57/1/104
vn -0.2587222 -0.9655643 -0.0273577
f 69/1/105 58/1/105 57/1/105
vn -0.2587222 -0.9655643 -0.0273577
f 69/1/106 70/1/106 58/1/106
vn 0.2587222 -0.9655643 -0.0273577
f 70/1/107 59/1/107 58/1/107
vn 0.2587222 -0.9655643 -0.0273577
f 70/1/108 71/1/108 59/1/108
vn 0.7068421 -0.7068421 -0.0273577
f 71/1/109 60/1/109 59/1/109
vn 0.7068421 -0.7068421 -0.0273577
f 71/1/110 72/1/110 60/1/110
vn 0.9655643 -0.2587222 -0.0273577
f 72/1/111 49/1/111 60/1/111
vn 0.9655643 -0.2587222 -0.0273577
f 72/1/112 61/1/112 49/1/112
vn 0.0000000 0.0000000 1.0000000
f 50/1/113 51/1/113 49/1/113
vn 0.0000000 0.0000000 -1.0000000
f 63/1/114 62/1/114 61/1/114
vn 0.0000000 0.0000000 1.0000000
f 51/1/115 52/1/115 49/1/115
vn 0.0000000 0.0000000 -1.0000000
f 64/1/116 63/1/116 61/1/116
vn 0.0000000 0.0000000 1.0000000
f 52/1/117 53/1/117 49/1/117
vn 0.0000000 0.0000000 -1.0000000
f 65/1/118 64/1/118 61/1/118
vn 0.0000000 0.0000000 1.0000000
f 53/1/119 54/1/119 49/1/119
vn 0.0000000 0.0000000 -1.0000000
f 66/1/120 65/1/120 61/1/120
vn 0.0000000 0.0000000 1.0000000
f 54/1/121 55/1/121 49/1/121
vn 0.0000000 0.0000000 -1.0000000
f 67/1/122 66/1/122 61/1/122
vn 0.0000000 0.0000000 1.0000000
f 55/1/123 56/1/123 49/1/123
vn 0.0000000 0.0000000 -1.0000000
f 68/1/124 67/1/124 61/1/124
vn -0.0000000 0.0000000 1.0000000
f 56/1/125 57/1/125 49/1/125
vn 0.0000000 0.0000000 -1.0000000
f 69/1/126 68/1/126 61/1/126
vn -0.0000000 0.0000000 1.0000000
f 57/1/127 58/1/127 49/1/127
vn 0.0000000 0.0000000 -1.0000000
f 70/1/128 69/1/128 61/1/128
vn 0.0000000 0.0000000 1.0000000
f 58/1/129 59/1/129 49/1/129
vn -0.0000000 0.0000000 -1.0000000
f 71/1/130 70/1/130 61/1/130
vn 0.0000000 0.0000000 1.0000000
f 59/1/131 60/1/131 49/1/131
vn -0.0000000 0.0000000 -1.0000000
f 72/1/132 71/1/132 61/1/132
vn 0.9655544 0.2587195 -0.0277287
f 85/1/133 74/1/133 73/1/133
vn 0.9655544 0.2587195 -0.0277287
f 85/1/134 86/1/134 74/1/134
vn 0.7068349 0.7068349 -0.0277287
f 86/1/135 75/1/135 74/1/135
vn 0.7068349 0.7068349 -0.0277287
f 86/1/136 87/1/136 75/1/136
vn 0.2587195 0.9655544 -0.0277287
f 87/1/137 76/1/137 75/1/137
vn 0.2587195 0.9655544 -0.0277287
f 87/1/138 88/1/138 76/1/138
vn -0.2587195 0.9655544 -0.0277287
f 88/1/139 77/1/139 76/1/139
vn -0.2587195 0.9655544 -0.0277287
f 88/1/140 89/1/140 77/1/140
vn -0.7068349 0.7068349 -0.0277287
f 89/1/141 78/1/141 77/1/141
vn -0.7068349 0.7068349 -0.0277287
f 89/1/142 90/1/142 78/1/142
vn -0.9655544 0.2587195 -0.0277287
f 90/1/143 79/1/143 78/1/143
vn -0.9655544 0.2587195 -0.0277287
f 90/1/144 91/1/144 79/1/144
vn -0.9655544 -0.2587195 -0.0277287
f 91/1/145 80/1/145 79/1/145
vn -0.9655544 -0.2587195 -0.0277287
f 91/1/146 92/1/146 80/1/146
vn -0.7068349 -0.7068349 -0.0277287
f 92/1/147 81/1/147 80/1/147
vn -0.7068349 -0.7068349 -0.0277287
f 92/1/148 93/1/148 81/1/148
vn -0.2587195 -0.9655544 -0.0277287
f 93/1/149 82/1/149 81/1/149
vn -0.2587195 -0.9655544 -0.0277287
f 93/1/150 94/1/150 82/1/150
vn 0.2587195 -0.9655544 -0.0277287
f 94/1/151 83/1/151 82/1/151
vn 0.2587195 -0.9655544 -0.0277287
f 94/1/152 95/1/152 83/1/152
vn 0.7068349 -0.7068349 -0.0277287
f 95/1/153 84/1/153 83/1/153
vn 0.7068349 -0.7068349 -0.0277287
f 95/1/154 96/1/154 84/1/154
vn 0.9655544 -0.2587195 -0.0277287
f 96/1/155 73/1/155 84/1/155
vn 0.9655544 -0.2587195 -0.0277287
f 96/1/156 85/1/156 73/1/156
vn 0.0000000 0.0000000 1.0000000
f 74/1/157 75/1/157 73/1/157
vn 0.0000000 0.0000000 -1.0000000
f 87/1/158 86/1/158 85/1/158
vn 0.0000000 0.0000000 1.0000000
f 75/1/159 76/1/159 73/1/159
vn 0.0000000 0.0000000 -1.0000000
f 88/1/160 87/1/160 85/1/160
vn 0.0000000 0.0000000 1.0000000
f 76/1/161 77/1/161 73/1/161
vn 0.0000000 0.0000000 -1.0000000
f 89/1/162 88/1/162 85/1/162
vn 0.0000000 0.0000000 1.0000000
f 77/1/163 78/1/163 73/1/163
vn 0.0000000 0.0000000 -1.0000000
f 90/1/164 89/1/164 85/1/164
vn 0.0000000 0.0000000 1.0000000
f 78/1/165 79/1/165 73/1/165
vn 0.0000000 0.0000000 -1.0000000
f 91/1/166 90/1/166 85/1/166
vn 0.0000000 0.0000000 1.0000000
f 79/1/167 80/1/167 73/1/167
vn 0.0000000 0.0000000 -1.0000000
f 92/1/168 91/1/168 85/1/168
vn -0.0000000 0.0000000 1.0000000
f 80/1/169 81/1/169 73/1/169
vn 0.0000000 0.0000000 -1.0000000
f 93/1/170 92/1/170 85/1/170
vn -0.0000000 0.0000000 1.0000000
f 81/1/171 82/1/171 73/1/171
vn 0.0000000 0.0000000 -1.0000000
f 94/1/172 93/1/172 85/1/172
vn 0.0000000 0.0000000 1.0000000
f 82/1/173 83/1/173 73/1/173
vn -0.0000000 0.0000000 -1.0000000
f 95/1/174 94/1/174 85/1/174
vn 0.0000000 0.0000000 1.0000000
f 83/1/175 84/1/175 73/1/175
vn -0.0000000 0.0000000 -1.0000000
f 96/1/176 95/1/176 85/1/176
vn 0.9654453 0.2586903 -0.0315379
f 109/1/177 98/1/177 97/1/177
vn 0.9654453 0.2586903 -0.0315379
f 109/1/178 110/1/178 98/1/178
vn 0.7067550 0.7067550 -0.0315379
f 110/1/179 99/1/179 98/1/179
vn 0.7067550 0.7067550 -0.0315379
f 110/1/180 111/1/180 99/1/180
vn 0.2586903 0.9654453 -0.0315379
f 111/1/181 100/1/181 99/1/181
vn 0.2586903 0.9654453 -0.0315379
f 111/1/182 112/1/182 100/1/182
vn -0.2586903 0.9654453 -0.0315379
f 112/1/183 101/1/183 100/1/183
vn -0.2586903 0.9654453 -0.0315379
f 112/1/184 113/1/184 101/1/184
vn -0.7067550 0.7067550 -0.0315379
f 113/1/185 102/1/185 101/1/185
vn -0.7067550 0.7067550 -0.0315379
f 113/1/186 114/1/186 102/1/186
vn -0.9654453 0.2586903 -0.0315379
f 114/1/187 103/1/187 102/1/187
vn -0.9654453 0.2586903 -0.0315379
f 114/1/188 115/1/188 103/1/188
vn -0.9654453 -0.2586903 -0.0315379
f 115/1/189 104/1/189 103/1/189
vn -0.9654453 -0.2586903 -0.0315379
f 115/1/190 116/1/190 104/1/190
vn -0.7067550 -0.7067550 -0.0315379
f 116/1/191 105/1/191 104/1/191
vn -0.7067550 -0.7067550 -0.0315379
f 116/1/192 117/1/192 105/1/192
vn -0.2586903 -0.9654453 -0.0315379
f 117/1/193 106/1/193 105/1/193
vn -0.2586903 -0.9654453 -0.0315379
f 117/1/194 118/1/194 106/1/194
vn 0.2586903 -0.9654453 -0.0315379
f 118/1/195 107/1/195 106/1/195
vn 0.2586903 -0.9654453 -0.0315379
f 118/1/196 119/1/196 107/1/196
vn 0.7067550 -0.7067550 -0.0315379
f 119/1/197 108/1/197 107/1/197
vn 0.7067550 -0.7067550 -0.0315379
f 119/1/198 120/1/198 108/1/198
vn 0.9654453 -0.2586903 -0.0315379
f 120/1/199 97/1/199 108/1/199
vn 0.9654453 -0.2586903 -0.0315379
f 120/1/200 109/1/200 97/1/200
vn 0.0000000 0.0000000 1.0000000
f 98/1/201 99/1/201 97/1/201
vn 0.0000000 0.0000000 -1.0000000
f 111/1/202 110/1/202 109/1/202
vn 0.0000000 0.0000000 1.0000000
f 99/1/203 100/1/203 97/1/203
vn 0.0000000 0.0000000 -1.0000000
f 112/1/204 111/1/204 109/1/204
vn 0.0000000 0.0000000 1.0000000
f 100/1/205 101/1/205 97/1/205
vn 0.0000000 0.0000000 -1.0000000
f 113/1/206 112/1/206 109/1/206
vn 0.0000000 0.0000000 1.0000000
f 101/1/207 102/1/207 97/1/207
vn 0.0000000 0.0000000 -1.0000000
f 114/1/208 113/1/208 109/1/208
vn 0.0000000 0.0000000 1.0000000
f 102/1/209 103/1/209 97/1/209
vn 0.0000000 0.0000000 -1.0000000
f 115/1/210 114/1/210 109/1/210
vn 0.0000000 0.0000000 1.0000000
f 103/1/211 104/1/211 97/1/211
vn 0.0000000 0.0000000 -1.0000000
f 116/1/212 115/1/212 109/1/212
vn -0.0000000 0.0000000 1.0000000
f 104/1/213 105/1/213 97/1/213
vn 0.0000000 0.0000000 -1.0000000
f 117/1/214 116/1/214 109/1/214
vn -0.0000000 0.0000000 1.0000000
f 105/1/215 106/1/215 97/1/215
vn 0.0000000 0.0000000 -1.0000000
f 118/1/216 117/1/216 109/1/216
vn 0.0000000 0.0000000 1.0000000
f 106/1/217 107/1/217 97/1/217
vn -0.0000000 0.0000000 -1.0000000
f 119/1/218 118/1/218 109/1/218
vn 0.0000000 0.0000000 1.0000000
f 107/1/219 108/1/219 97/1/219
vn -0.0000000 0.0000000 -1.0000000
f 120/1/220 119/1/220 109/1/220
vn 0.7189934 0.2583010 0.6452357
f 133/1/221 122/1/221 121/1/221
vn 0.7189934 0.2583010 0.6452357
f 133/1/222 134/1/222 122/1/222
vn 0.5482980 0.7049689 0.4498757
f 134/1/223 123/1/223 122/1/223
vn 0.5482980 0.7049689 0.4498757
f 134/1/224 135/1/224 123/1/224
vn 0.2417555 0.9623445 0.1242871
f 135/1/225 124/1/225 123/1/225
vn 0.2417555 0.9623445 0.1242871
f 135/1/226 136/1/226 124/1/226
vn -0.1186974 0.9623445 -0.2445484
f 136/1/227 125/1/227 124/1/227
vn -0.1186974 0.9623445 -0.2445484
f 136/1/228 137/1/228 125/1/228
vn -0.4371540 0.7049689 -0.5584938
f 137/1/229 126/1/229 125/1/229
vn -0.4371540 0.7049689 -0.5584938
f 137/1/230 138/1/230 126/1/230
vn -0.6285388 0.2583010 -0.7336345
f 138/1/231 127/1/231 126/1/231
vn -0.6285388 0.2583010 -0.7336345
f 138/1/232 139/1/232 127/1/232
vn -0.6411404 -0.2585392 -0.7225624
f 139/1/233 128/1/233 127/1/233
vn -0.6411404 -0.2585392 -0.7225624
f 139/1/234 140/1/234 128/1/234
vn -0.4711191 -0.7067458 -0.5277852
f 140/1/235 129/1/235 128/1/235
vn -0.4711191 -0.7067458 -0.5277852
f 140/1/236 141/1/236 129/1/236
vn -0.1640086 -0.9656581 -0.2015085
f 141/1/237 130/1/237 129/1/237
vn -0.1640086 -0.9656581 -0.2015085
f 141/1/238 142/1/238 130/1/238
vn 0.1976854 -0.9656581 0.1685970
f 142/1/239 131/1/239 130/1/239
vn 0.1976854 -0.9656581 0.1685970
f 142/1/240 143/1/240 131/1/240
vn 0.5168168 -0.7067458 0.4831260
f 143/1/241 132/1/241 131/1/241
vn 0.5168168 -0.7067458 0.4831260
f 143/1/242 144/1/242 132/1/242
vn 0.7076346 -0.2585392 0.6575794
f 144/1/243 121/1/243 132/1/243
vn 0.7076346 -0.2585392 0.6575794
f 144/1/244 133/1/244 121/1/244
vn -0.7151872 -0.0000000 0.6989329
f 122/1/245 123/1/245 121/1/245
vn 0.7151872 -0.0000000 -0.6989329
f 135/1/246 134/1/246 133/1/246
vn -0.7151872 -0.0000000 0.6989329
f 123/1/247 124/1/247 121/1/247
vn 0.7151872 0.0000000 -0.6989329
f 136/1/248 135/1/248 133/1/248
vn -0.7151872 0.0000000 0.6989329
f 124/1/249 125/1/249 121/1/249
vn 0.7151872 0.0000000 -0.6989329
f 137/1/250 136/1/250 133/1/250
vn -0.7151872 -0.0000000 0.6989329
f 125/1/251 126/1/251 121/1/251
vn 0.7151872 -0.0000000 -0.6989329
f 138/1/252 137/1/252 133/1/252
vn -0.7151872 -0.0000000 0.6989329
f 126/1/253 127/1/253 121/1/253
vn 0.7151872 0.0000000 -0.6989329
f 139/1/254 138/1/254 133/1/254
vn -0.7151872 0.0000000 0.6989329
f 127/1/255 128/1/255 121/1/255
vn 0.7151872 -0.0000000 -0.6989329
f 140/1/256 139/1/256 133/1/256
vn -0.7151872 0.0000000 0.6989329
f 128/1/257 129/1/257 121/1/257
vn 0.7151872 0.0000000 -0.6989329
f 141/1/258 140/1/258 133/1/258
vn -0.7151872 0.0000000 0.6989329
f 129/1/259 130/1/259 121/1/259
vn 0.7151872 0.0000000 -0.6989329
f 142/1/260 141/1/260 133/1/260
vn -0.7151872 0.0000000 0.6989329
f 130/1/261 131/1/261 121/1/261
vn 0.7151872 0.0000000 -0.6989329
f 143/1/262 142/1/262 133/1/262
vn -0.7151872 0.0000000 0.6989329
f 131/1/263 132/1/263 121/1/263
vn 0.7151872 -0.0000000 -0.6989329
f 144/1/264 143/1/264 133/1/264
